<svg width="42" height="45" viewBox="0 0 42 45" fill="none" xmlns="http://www.w3.org/2000/svg">
<path d="M4.59386 32.6193C4.59386 33.6505 4.59386 42.4893 4.59386 42.4893C4.70576 42.8148 7.46648 43.0049 8.7923 43.0786M4.59386 32.6193C4.59386 32.6193 10.6337 23.2649 11.1493 23.2649C11.6649 23.2649 17.7048 32.7666 17.9994 32.9139C18.294 33.0612 30.4955 33.0935 38.5497 33.2086M4.59386 32.6193C3.70998 32.9139 2.8261 32.03 2.3105 32.1037M38.5497 33.2086C38.5497 37.0343 38.8443 42.6366 38.5497 43.0049C38.255 43.3732 22.5149 43.7132 17.4102 43.3732M38.5497 33.2086C40.1701 33.0612 40.1701 32.472 40.1701 31.1462M2.3105 32.1037C1.64759 32.1774 0.763708 31.3671 1.05833 30.4833C1.26926 29.8505 10.0445 17.225 10.9284 16.9304C10.788 16.603 18.9633 16.7508 25.3651 16.9589M2.3105 32.1037C2.3105 32.1037 10.2655 20.1713 11.3703 20.1713C12.4751 20.1713 18.5887 30.9989 19.6935 31.1462C20.7984 31.2935 32.0585 31.29 40.1701 31.1462M40.1701 31.1462C40.7594 31.1357 41.4223 30.4833 41.4223 29.9677C41.4223 29.4521 36.0453 19.7294 35.3824 18.9191C34.7195 18.1089 34.3512 17.5197 32.7308 17.2987C32.4366 17.2586 31.5232 17.2039 30.2264 17.1443M8.7923 43.0786C8.7923 43.0786 8.57133 39.2484 8.86596 38.3645C9.16059 37.4807 9.59815 36.9636 10.4128 36.9651C11.2469 36.9665 11.8122 37.5543 11.9595 38.4382C12.1069 39.3221 12.0942 41.4011 12.1805 43.2995M8.7923 43.0786C10.1181 43.1522 11.002 43.2259 12.1805 43.2995M12.1805 43.2995C13.6537 43.3732 15.1268 43.3732 17.4102 43.3732M17.4102 43.3732C17.4102 43.3732 17.4102 34.1661 17.4102 34.0924C17.4102 34.0188 17.4102 33.9451 17.3365 34.0188C17.2628 34.0924 17.4102 43.3732 17.4102 43.3732ZM25.3651 16.9589C27.2147 17.019 28.9162 17.0841 30.2264 17.1443M25.3651 16.9589C25.3651 16.9589 25.2793 15.2399 25.5861 14.7943C25.6619 14.6842 25.9571 14.6126 26.364 14.5734M30.2264 17.1443C30.2264 17.1443 30.5148 15.3495 30.1528 14.9417C30.0742 14.8531 29.8289 14.775 29.4899 14.7117M26.364 14.5734C26.4054 13.8543 26.3963 13.1002 26.4699 12.732C26.5436 12.3637 27.1005 11.8481 27.8694 11.8481C28.6383 11.8481 29.3426 12.4373 29.4162 12.732C29.4899 13.0266 29.4899 14.7117 29.4899 14.7117M26.364 14.5734C27.2461 14.4883 28.6533 14.5553 29.4899 14.7117M23.9656 37.186C23.8183 37.4807 23.671 38.7328 23.9656 38.9538C24.2602 39.1748 25.6597 39.1011 25.807 38.9538C25.9544 38.8065 25.9544 37.407 25.807 37.186C25.6597 36.9651 24.1129 36.8914 23.9656 37.186ZM31.3313 37.186C31.184 37.4807 31.0367 38.7328 31.3313 38.9538C31.6259 39.1748 33.0254 39.1011 33.1727 38.9538C33.32 38.8065 33.32 37.407 33.1727 37.186C33.0254 36.9651 31.4786 36.8914 31.3313 37.186ZM27.9431 9.63837C27.9431 9.63837 29.3426 10.5959 30.8157 8.82815C32.2888 7.06038 35.28 7.24562 36.34 7.13404C37.7394 6.98672 39.3599 6.25015 39.6545 5.51358C39.9492 4.77701 39.7282 3.30388 39.5072 2.56731C39.2862 1.83074 37.5921 0.845171 35.7507 1.02052C34.2039 1.16781 32.5098 3.74582 31.5523 4.55605C30.0678 5.81215 28.5931 6.33429 28.0904 7.06038C27.5877 7.78648 26.9119 8.90181 27.9431 9.63837ZM36.0454 12.8793C36.059 13.369 36.3719 13.7593 36.8556 13.8368C37.3839 13.9216 37.8637 13.5529 37.9605 13.0266C38.0677 12.4434 37.5959 11.8418 37.0029 11.8481C36.4534 11.854 36.0301 12.33 36.0454 12.8793ZM21.1667 4.6297C21.1803 5.11936 21.4932 5.50967 21.9769 5.58724C22.5052 5.67196 22.985 5.30325 23.0817 4.77701C23.189 4.19378 22.7172 3.59215 22.1242 3.5985C21.5747 3.60439 21.1514 4.08036 21.1667 4.6297ZM14.9058 11.4061C14.9194 11.8958 15.2324 12.2861 15.716 12.3637C16.2444 12.4484 16.7242 12.0797 16.8209 11.5534C16.9281 10.9702 16.4563 10.3686 15.8634 10.3749C15.3138 10.3808 14.8905 10.8568 14.9058 11.4061ZM6.80357 5.95552C6.8172 6.44518 7.13013 6.83549 7.6138 6.91306C8.1421 6.99779 8.62191 6.62907 8.71865 6.10284C8.82586 5.51961 8.35408 4.91798 7.76111 4.92433C7.21159 4.93021 6.78829 5.40618 6.80357 5.95552ZM2.23685 15.1626C2.25047 15.6523 2.56341 16.0426 3.04707 16.1202C3.57538 16.2049 4.05519 15.8362 4.15192 15.3099C4.25913 14.7267 3.78735 14.1251 3.19439 14.1314C2.64487 14.1373 2.22156 14.6133 2.23685 15.1626Z" stroke="#3EA2EF"/>
</svg>
